<svg t="1586326958831" class="icon" viewBox="0 0 1024 1024" version="1.1" xmlns="http://www.w3.org/2000/svg" p-id="1830" width="200" height="200"><path d="M473.135 355.149L277.327 550.957c-67.543 67.543-67.517 177.051 0.059 244.628 67.467 67.467 177.155 67.532 244.628 0.06l244.805-244.806c13.514-13.513 35.423-13.513 48.937 0 13.514 13.514 13.514 35.424 0 48.937L570.951 844.582c-94.514 94.512-248.021 94.421-342.502-0.06-94.598-94.599-94.635-247.925-0.06-342.502L571.07 159.34c0.01-0.012 0.022-0.022 0.032-0.032 67.68-67.602 176.792-67.713 244.594 0.092 67.685 67.684 67.844 176.843 0.02 244.667l-195.85 195.849-146.587 146.588c-40.655 40.655-106.261 40.838-146.956 0.143-40.703-40.704-40.86-105.952 0.144-146.955l342.274-342.275c13.513-13.513 35.423-13.513 48.937 0 13.513 13.514 13.513 35.425 0 48.937L375.404 648.63c-13.924 13.923-13.872 35.351-0.144 49.08 13.606 13.606 35.392 13.545 49.081-0.143l146.587-146.588L766.777 355.13c40.764-40.764 40.671-106.103-0.02-146.792a103.457 103.457 0 0 0-146.792-0.019l-146.83 146.83z" fill="#1296db" p-id="1831"></path></svg>