<svg t="1586333446807" class="icon" viewBox="0 0 1024 1024" version="1.1" xmlns="http://www.w3.org/2000/svg" p-id="4263" width="200" height="200"><path d="M387.7 498.9c-75.5 0-136.9-61.4-136.9-136.9s61.4-137 136.9-137 136.9 61.5 136.9 137-61.4 136.9-136.9 136.9z m0-199.2c-34.3 0-62.2 27.9-62.2 62.2s27.9 62.2 62.2 62.2 62.2-27.9 62.2-62.2-27.9-62.2-62.2-62.2z" fill="#1296db" p-id="4264"></path><path d="M860.8 162.8V860H163.6V162.8h697.2m0-99.6H163.6c-55 0-99.6 44.6-99.6 99.6V860c0 55 44.6 99.6 99.6 99.6h697.2c55 0 99.6-44.6 99.6-99.6V162.8c0-55-44.6-99.6-99.6-99.6z" fill="#1296db" p-id="4265"></path><path d="M113.8 797.7c-10.4 0-20.7-4.3-28.1-12.8-13.6-15.5-12-39.1 3.5-52.7l199.2-174.3c12.7-11.1 31.3-12.3 45.3-3l149.4 99.6c17.2 11.5 21.8 34.6 10.4 51.8-11.5 17.2-34.6 21.8-51.8 10.4L316.1 633 138.4 788.4c-7.1 6.2-15.8 9.3-24.6 9.3z" fill="#1296db" p-id="4266"></path><path d="M313 897.3c-8.8 0-17.6-3.1-24.7-9.3-15.5-13.7-41.1-7.1-27.4-22.6L658.5 412c13.6-15.4 37.1-16.9 52.6-3.4l199.2 174.3c15.5 13.6 17.1 37.2 3.5 52.7-13.6 15.5-37.2 17.1-52.7 3.5L689.9 489.2 341 884.6c-7.4 8.4-17.7 12.7-28 12.7z" fill="#1296db" p-id="4267"></path></svg>